<svg width="279" height="67" viewBox="0 0 279 67" fill="none" xmlns="http://www.w3.org/2000/svg">
<path d="M121.518 52.5829H127.719L130.697 33.3934L130.966 31.5868L131.234 33.3934L134.335 52.5829H140.536L145.468 17.036H139.169L136.752 36.9579L136.581 38.4471L136.361 36.9823L133.383 17.036H128.476L125.668 36.8358L125.448 38.3007L125.277 36.9091L122.909 17.036H116.635L121.518 52.5829ZM186.665 52.5829V17.036H179.78L179.756 39.8632L169.941 17.036H163.032V52.5829H169.941V29.6581L179.829 52.5829H186.665ZM207.11 52.5829H216.656C218.235 52.5829 219.716 52.3876 221.1 51.9969C222.499 51.6063 223.777 51.0448 224.933 50.3124C225.925 49.6939 226.837 48.9289 227.667 48.0175C228.497 47.0897 229.221 46.0806 229.84 44.9901C230.491 43.7694 230.995 42.4266 231.354 40.9618C231.712 39.4969 231.891 37.9426 231.891 36.2987V33.369C231.891 31.66 231.695 30.0487 231.305 28.535C230.93 27.0214 230.393 25.6379 229.693 24.3846C229.091 23.3593 228.383 22.4152 227.569 21.5526C226.772 20.6737 225.86 19.9331 224.835 19.3309C223.663 18.5985 222.361 18.037 220.929 17.6464C219.496 17.2395 217.958 17.036 216.314 17.036H207.11V52.5829ZM214.02 22.6024H216.314C217.145 22.6024 217.91 22.7001 218.609 22.8954C219.326 23.0744 219.977 23.3348 220.562 23.6766C221.327 24.1324 221.995 24.7183 222.564 25.4344C223.15 26.1506 223.622 26.9644 223.98 27.8759C224.273 28.6408 224.493 29.4872 224.64 30.4149C224.802 31.3264 224.884 32.2948 224.884 33.3202V36.2987C224.884 37.3892 224.802 38.4065 224.64 39.3505C224.493 40.2782 224.273 41.1246 223.98 41.8895C223.622 42.7684 223.191 43.5415 222.687 44.2089C222.198 44.8599 221.645 45.397 221.026 45.8202C220.424 46.2271 219.757 46.5363 219.024 46.7479C218.292 46.9595 217.503 47.0653 216.656 47.0653H214.02V22.6024ZM263.347 39.3016L270.036 52.5829H277.385V52.2655L269.743 37.5927C270.72 37.1532 271.599 36.6324 272.38 36.0302C273.177 35.4279 273.861 34.7199 274.431 33.9061C274.984 33.1086 275.407 32.2053 275.7 31.1962C276.009 30.1708 276.164 29.0233 276.164 27.7538C276.164 25.996 275.855 24.4497 275.236 23.1151C274.634 21.7805 273.771 20.6656 272.648 19.7704C271.509 18.8752 270.142 18.1997 268.547 17.744C266.952 17.272 265.17 17.036 263.2 17.036H251.286V52.5829H258.146V39.3016H263.347ZM258.146 33.7352V22.6024H263.2C264.144 22.6024 264.982 22.7163 265.715 22.9442C266.447 23.1721 267.066 23.4976 267.57 23.9208C268.14 24.3928 268.563 24.995 268.84 25.7274C269.133 26.4436 269.279 27.2736 269.279 28.2177C269.279 28.9989 269.165 29.7069 268.938 30.3417C268.726 30.9764 268.409 31.5217 267.985 31.9774C267.481 32.5471 266.822 32.9865 266.008 33.2958C265.21 33.5887 264.283 33.7352 263.225 33.7352H258.146Z" fill="white"/>
<path d="M45.9068 42.0451L35.3158 60.5265L0 0.888794H21.536L45.9068 42.0451Z" fill="url(#paint0_linear_756_91)"/>
<path d="M91.5639 0.888794L56.5939 60.8888L45.9609 42.3413L46.0228 42.2357L70.1213 0.888794H91.5639Z" fill="url(#paint1_linear_756_91)"/>
<path d="M35.791 0.944275H55.9707L45.9566 18.3745L35.791 0.944275Z" fill="url(#paint2_linear_756_91)"/>
<defs>
<linearGradient id="paint0_linear_756_91" x1="5.52581" y1="-0.91262" x2="51.547" y2="10.9226" gradientUnits="userSpaceOnUse">
<stop stop-color="#0E20EC"/>
<stop offset="1" stop-color="#D101A5"/>
</linearGradient>
<linearGradient id="paint1_linear_756_91" x1="51.4502" y1="-0.923563" x2="97.2379" y2="10.7031" gradientUnits="userSpaceOnUse">
<stop stop-color="#0E20EC"/>
<stop offset="1" stop-color="#D101A5"/>
</linearGradient>
<linearGradient id="paint2_linear_756_91" x1="38.22" y1="0.417779" x2="56.9811" y2="7.67436" gradientUnits="userSpaceOnUse">
<stop stop-color="#0E20EC"/>
<stop offset="1" stop-color="#D101A5"/>
</linearGradient>
</defs>
</svg>
